<svg xmlns="http://www.w3.org/2000/svg" width="29" height="29" viewBox="0 0 29 29" fill="none">
<g clip-path="url(#clip0_1_108)">
<path d="M26.332 22.2158C25.8935 23.1963 25.3743 24.0988 24.7729 24.9286C23.953 26.0598 23.2818 26.8428 22.7644 27.2776C21.9625 27.9914 21.1033 28.3569 20.1832 28.3777C19.5226 28.3777 18.726 28.1958 17.7988 27.8268C16.8685 27.4595 16.0136 27.2776 15.2318 27.2776C14.412 27.2776 13.5327 27.4595 12.5922 27.8268C11.6503 28.1958 10.8915 28.3881 10.3113 28.4071C9.42897 28.4435 8.54952 28.0676 7.67167 27.2776C7.11138 26.8047 6.41057 25.994 5.57102 24.8455C4.67026 23.619 3.92971 22.1967 3.34955 20.5753C2.72822 18.8239 2.41675 17.1279 2.41675 15.486C2.41675 13.6053 2.8367 11.9831 3.67785 10.6238C4.33892 9.53187 5.21838 8.67056 6.31909 8.03826C7.4198 7.40596 8.60912 7.08375 9.88992 7.06314C10.5907 7.06314 11.5097 7.27292 12.6518 7.68521C13.7907 8.09889 14.5219 8.30868 14.8425 8.30868C15.0822 8.30868 15.8945 8.06338 17.2716 7.57434C18.5739 7.12082 19.673 6.93304 20.5734 7.00701C23.0133 7.19756 24.8463 8.12834 26.0653 9.80523C23.8832 11.0847 22.8038 12.8768 22.8253 15.1758C22.845 16.9665 23.5163 18.4566 24.8355 19.6398C25.4334 20.189 26.1011 20.6134 26.844 20.9148C26.6829 21.3669 26.5128 21.8 26.332 22.2158ZM20.7363 0.906452C20.7363 2.31 20.2064 3.62049 19.1503 4.83346C17.8758 6.27545 16.3342 7.1087 14.6624 6.97721C14.6411 6.80883 14.6288 6.63161 14.6288 6.44539C14.6288 5.09799 15.2349 3.656 16.3112 2.47698C16.8486 1.88002 17.5321 1.38365 18.3609 0.987697C19.1879 0.597646 19.9701 0.38194 20.7059 0.345001C20.7273 0.532633 20.7363 0.720278 20.7363 0.906433V0.906452Z" fill="white"/>
</g>
<defs>
<clipPath id="clip0_1_108">
<rect width="29" height="28.0645" fill="white" transform="translate(0 0.344696)"/>
</clipPath>
</defs>
</svg>