<svg xmlns="http://www.w3.org/2000/svg" width="28" height="29" viewBox="0 0 28 29" fill="none">
<path d="M24.9666 15.4853L21.7233 17.1069C21.5016 17.2236 21.2333 17.1769 21.0466 17.0019L18.8649 14.8203C18.6316 14.587 18.6316 14.2253 18.8649 13.992L21.0816 11.7753C21.2566 11.6003 21.5366 11.5536 21.7583 11.6703L24.9666 13.2803C25.8883 13.7236 25.8883 15.0303 24.9666 15.4853Z" fill="white"/>
<path d="M19.0166 10.282C19.3783 10.457 19.4483 10.9353 19.1683 11.2153L17.22 13.1636L16.3916 13.992C16.1583 14.2253 15.7966 14.2253 15.5633 13.992L7.2333 5.66196C6.76663 5.19529 7.31497 4.43698 7.90997 4.72864L19.0166 10.282Z" fill="white"/>
<path d="M2.33325 23.8853V4.43698C2.33325 3.92364 2.95159 3.65529 3.32492 4.01696L13.5566 13.9453C13.8016 14.1786 13.7899 14.5636 13.5449 14.7969L3.31325 24.317C2.93992 24.667 2.33325 24.3986 2.33325 23.8853Z" fill="white"/>
<path d="M18.9817 18.4836L8.02667 23.967C7.43167 24.2586 6.88333 23.5003 7.35 23.0336L15.575 14.8086C15.8083 14.5753 16.17 14.5753 16.4033 14.8086L19.145 17.5503C19.4133 17.8303 19.3317 18.3086 18.9817 18.4836Z" fill="white"/>
</svg>